<svg xmlns="http://www.w3.org/2000/svg" xmlns:xlink="http://www.w3.org/1999/xlink" viewBox="0 0 144 144">
  <defs>
    <style>
      .cls-1, .cls-5 {
        fill: none;
      }

      .cls-2 {
        clip-path: url(#clip-path);
      }

      .cls-3 {
        clip-path: url(#clip-path-2);
      }

      .cls-4 {
        fill: #5476c9;
      }

      .cls-5 {
        stroke: #c69254;
        stroke-miterlimit: 10;
        stroke-width: 3.71px;
      }
    </style>
    <clipPath id="clip-path">
      <rect class="cls-1" x="10.75" y="10.61" width="122.51" height="122.78"/>
    </clipPath>
    <clipPath id="clip-path-2">
      <rect class="cls-1" x="10.75" y="10.61" width="122.51" height="122.78"/>
    </clipPath>
  </defs>
  <g id="OBJECTS">
    <g id="Artwork_91" data-name="Artwork 91">
      <g class="cls-2">
        <g class="cls-3">
          <path class="cls-4" d="M121.21,131.26H22.79A10.19,10.19,0,0,1,12.6,121.07V22.66a10.2,10.2,0,0,1,10.19-10.2h98.42a10.2,10.2,0,0,1,10.19,10.2v98.41a10.19,10.19,0,0,1-10.19,10.19M36.53,84a23.76,23.76,0,1,0,23.76,23.76A23.76,23.76,0,0,0,36.53,84m-2.8-70.31A20.49,20.49,0,1,0,54.22,34.2,20.49,20.49,0,0,0,33.73,13.71m62,22.51A35.64,35.64,0,1,0,131.4,71.86,35.64,35.64,0,0,0,95.76,36.22"/>
          <path class="cls-5" d="M121.21,131.26H22.79A10.19,10.19,0,0,1,12.6,121.07V22.66a10.2,10.2,0,0,1,10.19-10.2h98.42a10.2,10.2,0,0,1,10.19,10.2v98.41A10.19,10.19,0,0,1,121.21,131.26ZM36.53,84a23.76,23.76,0,1,0,23.76,23.76A23.76,23.76,0,0,0,36.53,84Zm-2.8-70.31A20.49,20.49,0,1,0,54.22,34.2,20.49,20.49,0,0,0,33.73,13.71Zm62,22.51A35.64,35.64,0,1,0,131.4,71.86,35.64,35.64,0,0,0,95.76,36.22Z"/>
        </g>
      </g>
    </g>
  </g>
</svg>
